<?xml version="1.0" encoding="UTF-8"?>
<svg xmlns="http://www.w3.org/2000/svg" viewBox="0 0 1400 1700" font-family="Segoe UI, Arial, sans-serif">
  <defs>
    <marker id="ar" viewBox="0 0 10 10" refX="9" refY="5" markerWidth="8" markerHeight="8" orient="auto">
      <path d="M 0 0 L 10 5 L 0 10 z" fill="#1F3A5F"/>
    </marker>
    <marker id="arThick" viewBox="0 0 10 10" refX="9" refY="5" markerWidth="10" markerHeight="10" orient="auto">
      <path d="M 0 0 L 10 5 L 0 10 z" fill="#E67E22"/>
    </marker>
    <marker id="arGrey" viewBox="0 0 10 10" refX="9" refY="5" markerWidth="8" markerHeight="8" orient="auto">
      <path d="M 0 0 L 10 5 L 0 10 z" fill="#888"/>
    </marker>
    <filter id="shd" x="-10%" y="-10%" width="120%" height="130%">
      <feGaussianBlur in="SourceAlpha" stdDeviation="2"/>
      <feOffset dx="1" dy="2"/>
      <feComponentTransfer><feFuncA type="linear" slope="0.22"/></feComponentTransfer>
      <feMerge><feMergeNode/><feMergeNode in="SourceGraphic"/></feMerge>
    </filter>
    <linearGradient id="grad-gw" x1="0" y1="0" x2="0" y2="1">
      <stop offset="0" stop-color="#E67E22"/>
      <stop offset="1" stop-color="#C0651A"/>
    </linearGradient>
  </defs>

  <!-- Title -->
  <rect x="0" y="0" width="1400" height="64" fill="#1F3A5F"/>
  <text x="700" y="40" fill="#fff" font-size="24" font-weight="700" text-anchor="middle">
    WealthPro — How a Request Travels Through the System
  </text>
  <text x="700" y="58" fill="#BFD5E8" font-size="12" text-anchor="middle">
    Follow the numbered arrows ① → ⑩ to trace one complete request end-to-end
  </text>

  <!-- ===================== ZONE 1: Users ===================== -->
  <g>
    <rect x="40" y="100" width="1320" height="110" rx="10" fill="#EAF2F8" stroke="#4A90D9"/>
    <text x="60" y="125" font-size="14" font-weight="700" fill="#1F3A5F">ZONE 1 — USERS (who calls the system)</text>

    <g filter="url(#shd)" font-size="13">
      <rect x="80" y="140" width="240" height="55" rx="8" fill="#fff" stroke="#4A90D9"/>
      <text x="200" y="162" text-anchor="middle" font-weight="700" fill="#1F3A5F">🛠 ADMIN</text>
      <text x="200" y="182" text-anchor="middle" fill="#555">Seeded once. Creates staff.</text>

      <rect x="350" y="140" width="240" height="55" rx="8" fill="#fff" stroke="#4A90D9"/>
      <text x="470" y="162" text-anchor="middle" font-weight="700" fill="#1F3A5F">👔 RM / ADVISOR</text>
      <text x="470" y="182" text-anchor="middle" fill="#555">Manages clients, KYC, orders.</text>

      <rect x="620" y="140" width="240" height="55" rx="8" fill="#fff" stroke="#4A90D9"/>
      <text x="740" y="162" text-anchor="middle" font-weight="700" fill="#1F3A5F">💹 DEALER</text>
      <text x="740" y="182" text-anchor="middle" fill="#555">Routes orders, records fills.</text>

      <rect x="890" y="140" width="220" height="55" rx="8" fill="#fff" stroke="#4A90D9"/>
      <text x="1000" y="162" text-anchor="middle" font-weight="700" fill="#1F3A5F">✅ COMPLIANCE</text>
      <text x="1000" y="182" text-anchor="middle" fill="#555">Resolves breaches.</text>

      <rect x="1140" y="140" width="200" height="55" rx="8" fill="#fff" stroke="#4A90D9"/>
      <text x="1240" y="162" text-anchor="middle" font-weight="700" fill="#1F3A5F">🙋 CLIENT</text>
      <text x="1240" y="182" text-anchor="middle" fill="#555">Views own data only.</text>
    </g>
  </g>

  <!-- Big arrow "1. HTTP request" -->
  <g>
    <circle cx="700" cy="240" r="18" fill="#E67E22"/>
    <text x="700" y="246" text-anchor="middle" font-size="14" font-weight="700" fill="#fff">1</text>
    <line x1="700" y1="210" x2="700" y2="263" stroke="#E67E22" stroke-width="3" marker-end="url(#arThick)"/>
    <text x="755" y="240" font-size="13" font-weight="700" fill="#E67E22">HTTP request  (Authorization: Bearer JWT)</text>
  </g>

  <!-- ===================== ZONE 2: GATEWAY ===================== -->
  <g>
    <rect x="40" y="275" width="1320" height="140" rx="10" fill="#FFF7E6" stroke="#E67E22" stroke-width="2"/>
    <text x="60" y="300" font-size="14" font-weight="700" fill="#8A5A10">ZONE 2 — API GATEWAY (:9999)  ·  the single front door</text>

    <g filter="url(#shd)">
      <rect x="80" y="320" width="240" height="75" rx="8" fill="url(#grad-gw)"/>
      <text x="200" y="343" text-anchor="middle" font-size="14" font-weight="700" fill="#fff">① JWT &amp; Role Check</text>
      <text x="200" y="362" text-anchor="middle" font-size="11" fill="#fff">Validate signature, expiry,</text>
      <text x="200" y="378" text-anchor="middle" font-size="11" fill="#fff">match role to URL pattern</text>

      <rect x="350" y="320" width="240" height="75" rx="8" fill="url(#grad-gw)"/>
      <text x="470" y="343" text-anchor="middle" font-size="14" font-weight="700" fill="#fff">② Inject Identity Headers</text>
      <text x="470" y="362" text-anchor="middle" font-size="11" fill="#fff">X-Auth-Username</text>
      <text x="470" y="378" text-anchor="middle" font-size="11" fill="#fff">X-Auth-Roles • X-Auth-Client-Id</text>

      <rect x="620" y="320" width="240" height="75" rx="8" fill="url(#grad-gw)"/>
      <text x="740" y="343" text-anchor="middle" font-size="14" font-weight="700" fill="#fff">③ Audit &amp; Circuit Breaker</text>
      <text x="740" y="362" text-anchor="middle" font-size="11" fill="#fff">Log call → gateway_db.auditlog</text>
      <text x="740" y="378" text-anchor="middle" font-size="11" fill="#fff">Wrap in Resilience4j CB</text>

      <rect x="890" y="320" width="450" height="75" rx="8" fill="#fff" stroke="#E67E22" stroke-width="1.5"/>
      <text x="1115" y="343" text-anchor="middle" font-size="13" font-weight="700" fill="#8A5A10">④ Route via Eureka Discovery</text>
      <text x="1115" y="362" text-anchor="middle" font-size="11" fill="#555">Resolves logical name → live service instance</text>
      <text x="1115" y="378" text-anchor="middle" font-size="11" fill="#555">e.g. lb://WEALTHPRO-SERVICE  →  http://192.168.x.x:8081</text>
    </g>
  </g>

  <!-- Arrow 5 down to services -->
  <g>
    <circle cx="700" cy="450" r="18" fill="#1F3A5F"/>
    <text x="700" y="456" text-anchor="middle" font-size="14" font-weight="700" fill="#fff">5</text>
    <line x1="700" y1="420" x2="700" y2="472" stroke="#1F3A5F" stroke-width="3" marker-end="url(#ar)"/>
    <text x="755" y="450" font-size="13" font-weight="700" fill="#1F3A5F">Forward to target service (with X-Auth-* headers)</text>
  </g>

  <!-- EUREKA + ADMIN floating side boxes -->
  <g filter="url(#shd)" font-size="12">
    <rect x="40" y="450" width="180" height="60" rx="6" fill="#E4F1DD" stroke="#4E8A3A"/>
    <text x="130" y="470" text-anchor="middle" font-weight="700" fill="#2E5A1A">🧭 Eureka :8761</text>
    <text x="130" y="490" text-anchor="middle" fill="#555">Service registry</text>
    <text x="130" y="505" text-anchor="middle" fill="#555">(all services register here)</text>
    <line x1="220" y1="480" x2="680" y2="370" stroke="#4E8A3A" stroke-width="1.5" stroke-dasharray="4,3"/>

    <rect x="1180" y="450" width="180" height="60" rx="6" fill="#FDE2E4" stroke="#B04444"/>
    <text x="1270" y="470" text-anchor="middle" font-weight="700" fill="#6E1A1A">📊 Admin :8083</text>
    <text x="1270" y="490" text-anchor="middle" fill="#555">Monitors all services</text>
    <text x="1270" y="505" text-anchor="middle" fill="#555">(health, metrics, logs)</text>
    <line x1="1180" y1="480" x2="720" y2="370" stroke="#B04444" stroke-width="1.5" stroke-dasharray="4,3"/>
  </g>

  <!-- ===================== ZONE 3: SERVICES ===================== -->
  <g>
    <rect x="40" y="520" width="1320" height="420" rx="10" fill="#F4E8FF" stroke="#8E44AD" stroke-width="2"/>
    <text x="60" y="545" font-size="14" font-weight="700" fill="#4A1B6B">ZONE 3 — 9 MICROSERVICES (each does ONE thing, owns ONE database)</text>
    <text x="60" y="563" font-size="11" fill="#666">Each reads X-Auth-* headers → enforces ownership via AuthContext</text>

    <!-- Service cards grid: 3x3 grid of service boxes -->
    <g font-size="12" filter="url(#shd)">

      <!-- Row 1 -->
      <g>
        <rect x="60" y="580" width="420" height="105" rx="8" fill="#fff" stroke="#8E44AD"/>
        <rect x="60" y="580" width="420" height="28" rx="8" fill="#8E44AD"/>
        <text x="75" y="600" fill="#fff" font-weight="700" font-size="13">🏠 Wealthpro :8081</text>
        <text x="465" y="600" fill="#fff" font-size="11" text-anchor="end">DB: kyc</text>
        <text x="75" y="626" font-weight="700" fill="#333">Owns: Client identity + KYC + Risk</text>
        <text x="75" y="646" fill="#555">• POST /api/clients     — onboard new client</text>
        <text x="75" y="663" fill="#555">• POST /api/clients/{id}/kyc  — upload KYC</text>
        <text x="75" y="680" fill="#555">• POST /api/clients/{id}/risk-profile</text>

        <rect x="500" y="580" width="420" height="105" rx="8" fill="#fff" stroke="#8E44AD"/>
        <rect x="500" y="580" width="420" height="28" rx="8" fill="#8E44AD"/>
        <text x="515" y="600" fill="#fff" font-weight="700" font-size="13">📦 ProductCatalog :8084</text>
        <text x="905" y="600" fill="#fff" font-size="11" text-anchor="end">DB: productcatalog</text>
        <text x="515" y="626" font-weight="700" fill="#333">Owns: what you can invest in</text>
        <text x="515" y="646" fill="#555">• GET /api/securities    — all equities</text>
        <text x="515" y="663" fill="#555">• GET /api/mutualfunds   — all funds</text>
        <text x="515" y="680" fill="#555">• GET /api/corporate-actions  — dividends etc.</text>

        <rect x="940" y="580" width="400" height="105" rx="8" fill="#fff" stroke="#8E44AD"/>
        <rect x="940" y="580" width="400" height="28" rx="8" fill="#8E44AD"/>
        <text x="955" y="600" fill="#fff" font-weight="700" font-size="13">💼 PBOR :8086</text>
        <text x="1325" y="600" fill="#fff" font-size="11" text-anchor="end">DB: pbor</text>
        <text x="955" y="626" font-weight="700" fill="#333">Owns: portfolio + holdings + cash</text>
        <text x="955" y="646" fill="#555">• GET /api/accounts/{id}    — portfolio</text>
        <text x="955" y="663" fill="#555">• GET /api/holdings         — positions</text>
        <text x="955" y="680" fill="#555">• GET /api/cash-ledger      — cash txns</text>
      </g>

      <!-- Row 2 -->
      <g>
        <rect x="60" y="700" width="420" height="105" rx="8" fill="#fff" stroke="#8E44AD"/>
        <rect x="60" y="700" width="420" height="28" rx="8" fill="#8E44AD"/>
        <text x="75" y="720" fill="#fff" font-weight="700" font-size="13">🧾 Order Execution :8085</text>
        <text x="465" y="720" fill="#fff" font-size="11" text-anchor="end">DB: order_execution</text>
        <text x="75" y="746" font-weight="700" fill="#333">Owns: order lifecycle (BUY/SELL)</text>
        <text x="75" y="766" fill="#555">• POST /api/orders          — place order</text>
        <text x="75" y="783" fill="#555">• POST /api/orders/{id}/fills — record fill</text>
        <text x="75" y="800" fill="#555">• POST /api/orders/{id}/allocate</text>

        <rect x="500" y="700" width="420" height="105" rx="8" fill="#fff" stroke="#8E44AD"/>
        <rect x="500" y="700" width="420" height="28" rx="8" fill="#8E44AD"/>
        <text x="515" y="720" fill="#fff" font-weight="700" font-size="13">📈 Analytics :8082</text>
        <text x="905" y="720" fill="#fff" font-size="11" text-anchor="end">DB: analytics</text>
        <text x="515" y="746" font-weight="700" fill="#333">Owns: dashboards + breach detection</text>
        <text x="515" y="766" fill="#555">• GET /api/analytics/{id}/dashboard</text>
        <text x="515" y="783" fill="#555">• GET /api/compliance-breaches</text>
        <text x="515" y="800" fill="#555">• POST /api/compliance/scan</text>

        <rect x="940" y="700" width="400" height="105" rx="8" fill="#fff" stroke="#8E44AD"/>
        <rect x="940" y="700" width="400" height="28" rx="8" fill="#8E44AD"/>
        <text x="955" y="720" fill="#fff" font-weight="700" font-size="13">🎯 Goals &amp; Advisory :8087</text>
        <text x="1325" y="720" fill="#fff" font-size="11" text-anchor="end">DB: goals</text>
        <text x="955" y="746" font-weight="700" fill="#333">Owns: financial goals tracking</text>
        <text x="955" y="766" fill="#555">• POST /api/goals         — set goal</text>
        <text x="955" y="783" fill="#555">• GET  /api/goals/{id}    — progress</text>
        <text x="955" y="800" fill="#555">• GET  /api/goals/projection</text>
      </g>

      <!-- Row 3 -->
      <g>
        <rect x="60" y="820" width="420" height="105" rx="8" fill="#fff" stroke="#8E44AD"/>
        <rect x="60" y="820" width="420" height="28" rx="8" fill="#8E44AD"/>
        <text x="75" y="840" fill="#fff" font-weight="700" font-size="13">🔔 Notifications :8088</text>
        <text x="465" y="840" fill="#fff" font-size="11" text-anchor="end">DB: notification</text>
        <text x="75" y="866" font-weight="700" fill="#333">Owns: user alerts</text>
        <text x="75" y="886" fill="#555">• GET  /api/notifications/user/{id}</text>
        <text x="75" y="903" fill="#555">• PUT  /api/notifications/{id}/status</text>
        <text x="75" y="920" fill="#555">• PUT  /api/notifications/user/{id}/read-all</text>

        <rect x="500" y="820" width="420" height="105" rx="8" fill="#fff" stroke="#8E44AD"/>
        <rect x="500" y="820" width="420" height="28" rx="8" fill="#8E44AD"/>
        <text x="515" y="840" fill="#fff" font-weight="700" font-size="13">📅 Review Service :8089</text>
        <text x="905" y="840" fill="#fff" font-size="11" text-anchor="end">DB: review</text>
        <text x="515" y="866" font-weight="700" fill="#333">Owns: periodic review meetings</text>
        <text x="515" y="886" fill="#555">• POST /api/reviews          — schedule</text>
        <text x="515" y="903" fill="#555">• GET  /api/reviews/{id}     — details</text>
        <text x="515" y="920" fill="#555">• PUT  /api/reviews/{id}/status</text>

        <rect x="940" y="820" width="400" height="105" rx="8" fill="#fff" stroke="#8E44AD"/>
        <rect x="940" y="820" width="400" height="28" rx="8" fill="#8E44AD"/>
        <text x="955" y="840" fill="#fff" font-weight="700" font-size="13">🔒 (role: Compliance)</text>
        <text x="1325" y="840" fill="#fff" font-size="11" text-anchor="end">Cross-cuts all services</text>
        <text x="955" y="866" font-weight="700" fill="#333">Compliance officer reads breaches</text>
        <text x="955" y="886" fill="#555">Uses Analytics API to acknowledge</text>
        <text x="955" y="903" fill="#555">and resolve rule violations.</text>
        <text x="955" y="920" fill="#555" font-style="italic">(no separate microservice needed)</text>
      </g>
    </g>
  </g>

  <!-- Arrow 6 down to DBs -->
  <g>
    <circle cx="700" cy="970" r="18" fill="#27AE60"/>
    <text x="700" y="976" text-anchor="middle" font-size="14" font-weight="700" fill="#fff">6</text>
    <line x1="700" y1="945" x2="700" y2="992" stroke="#27AE60" stroke-width="3" marker-end="url(#ar)"/>
    <text x="755" y="970" font-size="13" font-weight="700" fill="#27AE60">JPA / Hibernate query  (service reads/writes its own DB)</text>
  </g>

  <!-- ===================== ZONE 4: DATABASES ===================== -->
  <g>
    <rect x="40" y="1000" width="1320" height="100" rx="10" fill="#E8F5E9" stroke="#27AE60" stroke-width="2"/>
    <text x="60" y="1025" font-size="14" font-weight="700" fill="#1B5E20">ZONE 4 — MYSQL DATABASES  (one schema per service, no cross-schema joins)</text>

    <g font-size="11" filter="url(#shd)">
      <rect x="65" y="1040" width="140" height="50" rx="6" fill="#fff" stroke="#27AE60"/>
      <text x="135" y="1058" text-anchor="middle" font-weight="700" fill="#1B5E20">gateway_db</text>
      <text x="135" y="1075" text-anchor="middle" fill="#555">users, auditlog</text>

      <rect x="215" y="1040" width="140" height="50" rx="6" fill="#fff" stroke="#27AE60"/>
      <text x="285" y="1058" text-anchor="middle" font-weight="700" fill="#1B5E20">kyc</text>
      <text x="285" y="1075" text-anchor="middle" fill="#555">client, kyc, risk</text>

      <rect x="365" y="1040" width="140" height="50" rx="6" fill="#fff" stroke="#27AE60"/>
      <text x="435" y="1058" text-anchor="middle" font-weight="700" fill="#1B5E20">productcatalog</text>
      <text x="435" y="1075" text-anchor="middle" fill="#555">security, fund</text>

      <rect x="515" y="1040" width="140" height="50" rx="6" fill="#fff" stroke="#27AE60"/>
      <text x="585" y="1058" text-anchor="middle" font-weight="700" fill="#1B5E20">order_execution</text>
      <text x="585" y="1075" text-anchor="middle" fill="#555">orders, fills</text>

      <rect x="665" y="1040" width="140" height="50" rx="6" fill="#fff" stroke="#27AE60"/>
      <text x="735" y="1058" text-anchor="middle" font-weight="700" fill="#1B5E20">pbor</text>
      <text x="735" y="1075" text-anchor="middle" fill="#555">accounts, holdings</text>

      <rect x="815" y="1040" width="140" height="50" rx="6" fill="#fff" stroke="#27AE60"/>
      <text x="885" y="1058" text-anchor="middle" font-weight="700" fill="#1B5E20">analytics</text>
      <text x="885" y="1075" text-anchor="middle" fill="#555">breaches</text>

      <rect x="965" y="1040" width="140" height="50" rx="6" fill="#fff" stroke="#27AE60"/>
      <text x="1035" y="1058" text-anchor="middle" font-weight="700" fill="#1B5E20">goals</text>
      <text x="1035" y="1075" text-anchor="middle" fill="#555">goal, projection</text>

      <rect x="1115" y="1040" width="130" height="50" rx="6" fill="#fff" stroke="#27AE60"/>
      <text x="1180" y="1058" text-anchor="middle" font-weight="700" fill="#1B5E20">notification</text>
      <text x="1180" y="1075" text-anchor="middle" fill="#555">notification</text>

      <rect x="1255" y="1040" width="100" height="50" rx="6" fill="#fff" stroke="#27AE60"/>
      <text x="1305" y="1058" text-anchor="middle" font-weight="700" fill="#1B5E20">review</text>
      <text x="1305" y="1075" text-anchor="middle" fill="#555">review</text>
    </g>
  </g>

  <!-- Response arrow: 7 returns -->
  <g>
    <circle cx="1320" cy="1135" r="18" fill="#27AE60"/>
    <text x="1320" y="1141" text-anchor="middle" font-size="14" font-weight="700" fill="#fff">7</text>
    <path d="M 1335 1120 Q 1380 1100 1380 900 Q 1380 700 1380 340 Q 1380 200 700 200" stroke="#27AE60" stroke-width="2.5" fill="none" marker-end="url(#ar)"/>
    <text x="1355" y="700" font-size="12" font-weight="700" fill="#27AE60" transform="rotate(-90 1355 700)">Response travels back: Service → Gateway → User</text>
  </g>

  <!-- ============ THE 13-ACT WORKFLOW BELT ============ -->
  <g>
    <rect x="40" y="1135" width="1240" height="40" rx="6" fill="#F0F4F8"/>
    <text x="660" y="1160" text-anchor="middle" font-size="15" font-weight="700" fill="#1F3A5F">
      REAL-WORLD EXAMPLE: Full Client Lifecycle — 13 Steps in Order
    </text>
  </g>

  <g font-size="11">
    <!-- Horizontal chain of numbered bubbles -->
    <g font-weight="700">
      <g filter="url(#shd)">
        <circle cx="100" cy="1220" r="24" fill="#2E5C8A"/><text x="100" y="1226" text-anchor="middle" fill="#fff" font-size="14">1</text>
        <text x="100" y="1265" text-anchor="middle" fill="#333">Admin</text><text x="100" y="1280" text-anchor="middle" fill="#555">bootstraps</text><text x="100" y="1294" text-anchor="middle" fill="#555">staff</text>

        <circle cx="200" cy="1220" r="24" fill="#2E5C8A"/><text x="200" y="1226" text-anchor="middle" fill="#fff" font-size="14">2</text>
        <text x="200" y="1265" text-anchor="middle" fill="#333">Client self-</text><text x="200" y="1280" text-anchor="middle" fill="#555">registers</text>

        <circle cx="300" cy="1220" r="24" fill="#2E5C8A"/><text x="300" y="1226" text-anchor="middle" fill="#fff" font-size="14">3</text>
        <text x="300" y="1265" text-anchor="middle" fill="#333">RM uploads</text><text x="300" y="1280" text-anchor="middle" fill="#555">KYC docs</text>

        <circle cx="400" cy="1220" r="24" fill="#2E5C8A"/><text x="400" y="1226" text-anchor="middle" fill="#fff" font-size="14">4</text>
        <text x="400" y="1265" text-anchor="middle" fill="#333">Risk profile</text><text x="400" y="1280" text-anchor="middle" fill="#555">scored</text>

        <circle cx="500" cy="1220" r="24" fill="#2E5C8A"/><text x="500" y="1226" text-anchor="middle" fill="#fff" font-size="14">5</text>
        <text x="500" y="1265" text-anchor="middle" fill="#333">Products</text><text x="500" y="1280" text-anchor="middle" fill="#555">catalog</text><text x="500" y="1294" text-anchor="middle" fill="#555">ready</text>

        <circle cx="600" cy="1220" r="24" fill="#2E5C8A"/><text x="600" y="1226" text-anchor="middle" fill="#fff" font-size="14">6</text>
        <text x="600" y="1265" text-anchor="middle" fill="#333">PBOR opens</text><text x="600" y="1280" text-anchor="middle" fill="#555">account</text>

        <circle cx="700" cy="1220" r="24" fill="#E67E22"/><text x="700" y="1226" text-anchor="middle" fill="#fff" font-size="14">7</text>
        <text x="700" y="1265" text-anchor="middle" fill="#333">Advisor</text><text x="700" y="1280" text-anchor="middle" fill="#555">places order</text>

        <circle cx="800" cy="1220" r="24" fill="#E67E22"/><text x="800" y="1226" text-anchor="middle" fill="#fff" font-size="14">8</text>
        <text x="800" y="1265" text-anchor="middle" fill="#333">Dealer routes</text><text x="800" y="1280" text-anchor="middle" fill="#555">to venue</text>

        <circle cx="900" cy="1220" r="24" fill="#E67E22"/><text x="900" y="1226" text-anchor="middle" fill="#fff" font-size="14">9</text>
        <text x="900" y="1265" text-anchor="middle" fill="#333">Fill recorded</text><text x="900" y="1280" text-anchor="middle" fill="#555">→ FILLED</text>

        <circle cx="1000" cy="1220" r="24" fill="#E67E22"/><text x="1000" y="1226" text-anchor="middle" fill="#fff" font-size="14">10</text>
        <text x="1000" y="1265" text-anchor="middle" fill="#333">Holdings</text><text x="1000" y="1280" text-anchor="middle" fill="#555">allocated</text>

        <circle cx="1100" cy="1220" r="24" fill="#8E44AD"/><text x="1100" y="1226" text-anchor="middle" fill="#fff" font-size="14">11</text>
        <text x="1100" y="1265" text-anchor="middle" fill="#333">Compliance</text><text x="1100" y="1280" text-anchor="middle" fill="#555">scan</text>

        <circle cx="1200" cy="1220" r="24" fill="#8E44AD"/><text x="1200" y="1226" text-anchor="middle" fill="#fff" font-size="14">12</text>
        <text x="1200" y="1265" text-anchor="middle" fill="#333">Alerts +</text><text x="1200" y="1280" text-anchor="middle" fill="#555">review</text>

        <circle cx="1300" cy="1220" r="24" fill="#27AE60"/><text x="1300" y="1226" text-anchor="middle" fill="#fff" font-size="14">13</text>
        <text x="1300" y="1265" text-anchor="middle" fill="#333">Client sees</text><text x="1300" y="1280" text-anchor="middle" fill="#555">dashboard</text>
      </g>

      <!-- connecting lines between bubbles -->
      <g stroke="#AAB2BA" stroke-width="2" fill="none">
        <line x1="124" y1="1220" x2="176" y2="1220"/>
        <line x1="224" y1="1220" x2="276" y2="1220"/>
        <line x1="324" y1="1220" x2="376" y2="1220"/>
        <line x1="424" y1="1220" x2="476" y2="1220"/>
        <line x1="524" y1="1220" x2="576" y2="1220"/>
        <line x1="624" y1="1220" x2="676" y2="1220"/>
        <line x1="724" y1="1220" x2="776" y2="1220"/>
        <line x1="824" y1="1220" x2="876" y2="1220"/>
        <line x1="924" y1="1220" x2="976" y2="1220"/>
        <line x1="1024" y1="1220" x2="1076" y2="1220"/>
        <line x1="1124" y1="1220" x2="1176" y2="1220"/>
        <line x1="1224" y1="1220" x2="1276" y2="1220"/>
      </g>

      <!-- Color legend for workflow stages -->
      <g font-size="11" font-weight="400" fill="#555">
        <rect x="40" y="1320" width="14" height="14" fill="#2E5C8A"/>
        <text x="60" y="1332">Onboarding (steps 1-6)</text>

        <rect x="250" y="1320" width="14" height="14" fill="#E67E22"/>
        <text x="270" y="1332">Trading (steps 7-10)</text>

        <rect x="430" y="1320" width="14" height="14" fill="#8E44AD"/>
        <text x="450" y="1332">Monitoring (steps 11-12)</text>

        <rect x="640" y="1320" width="14" height="14" fill="#27AE60"/>
        <text x="660" y="1332">Client view (step 13)</text>
      </g>
    </g>
  </g>

  <!-- ============ THE "HOW IT FEELS" SUMMARY ============ -->
  <g filter="url(#shd)">
    <rect x="40" y="1360" width="1320" height="200" rx="10" fill="#FFFDF4" stroke="#E8C770"/>
    <text x="60" y="1385" font-size="14" font-weight="700" fill="#8A5A10">IN PLAIN ENGLISH — what happens when (e.g.) a CLIENT opens their dashboard</text>

    <g font-size="12">
      <text x="60" y="1410"><tspan font-weight="700" fill="#2E5C8A">1.</tspan>  Browser sends GET /api/analytics/5/dashboard with JWT token.</text>
      <text x="60" y="1432"><tspan font-weight="700" fill="#2E5C8A">2.</tspan>  Gateway verifies JWT → role is CLIENT → URL pattern allowed.</text>
      <text x="60" y="1454"><tspan font-weight="700" fill="#2E5C8A">3.</tspan>  Gateway strips Authorization header, adds X-Auth-Username, X-Auth-Roles, X-Auth-Client-Id=5, writes audit row.</text>
      <text x="60" y="1476"><tspan font-weight="700" fill="#2E5C8A">4.</tspan>  Gateway asks Eureka where ANALYTICS-SERVICE is running → forwards call.</text>
      <text x="60" y="1498"><tspan font-weight="700" fill="#2E5C8A">5.</tspan>  Analytics Service reads headers → builds AuthContext → sees user is CLIENT with clientId=5.</text>
      <text x="60" y="1520"><tspan font-weight="700" fill="#2E5C8A">6.</tspan>  Controller: "are you trying to read client 5's data?" → yes, caller IS client 5 → allowed.</text>
      <text x="60" y="1542"><tspan font-weight="700" fill="#2E5C8A">7.</tspan>  Service queries its analytics schema via JPA → returns JSON → Gateway relays it back to browser.</text>
    </g>
  </g>

  <!-- Legend at bottom -->
  <g font-size="12" transform="translate(40, 1590)">
    <text x="0" y="0" font-weight="700" fill="#333">LEGEND:</text>
    <rect x="80" y="-10" width="16" height="14" fill="#EAF2F8" stroke="#4A90D9"/>
    <text x="102" y="0">Users</text>
    <rect x="160" y="-10" width="16" height="14" fill="#FFF7E6" stroke="#E67E22"/>
    <text x="182" y="0">Gateway</text>
    <rect x="250" y="-10" width="16" height="14" fill="#F4E8FF" stroke="#8E44AD"/>
    <text x="272" y="0">Microservice</text>
    <rect x="365" y="-10" width="16" height="14" fill="#E8F5E9" stroke="#27AE60"/>
    <text x="387" y="0">Database</text>
    <circle cx="460" cy="-4" r="10" fill="#E67E22"/>
    <text x="460" y="0" text-anchor="middle" fill="#fff" font-weight="700" font-size="11">N</text>
    <text x="478" y="0">numbered flow step</text>
  </g>

  <!-- Footer -->
  <text x="700" y="1670" font-size="11" text-anchor="middle" fill="#888">
    WealthPro Backend • Spring Boot 3.5.13 • Java 24 • 11 microservices • Read arrows in number order
  </text>
</svg>
